<svg
        width="30"
        height="0.8"
        viewBox="0 0 30 30"
        fill="none"
        xmlns="http://www.w3.org/2000/svg"
      >
        <path
          fill-rule="evenodd"
          clip-rule="evenodd"
          d="M15 2.69184C16.9973 2.61693 18.9974 2.67255 20.9875 2.85837C21.9529 2.84652 22.9119 3.01598 23.8148 3.35795C25.0604 3.93845 26.0615 4.93952 26.642 6.18514C26.984 7.08797 27.1534 8.04697 27.1416 9.01233C27.1416 10.5092 27.3081 11.0088 27.3081 14.9998C27.383 16.9971 27.3274 18.9971 27.1416 20.9872C27.1534 21.9525 26.984 22.9115 26.642 23.8144C26.0615 25.06 25.0604 26.0611 23.8148 26.6416C22.9119 26.9835 21.9529 27.153 20.9875 27.1411C19.4906 27.1411 18.9911 27.3077 15 27.3077C13.0027 27.3826 11.0026 27.327 9.01247 27.1411C8.0471 27.153 7.08809 26.9835 6.18524 26.6416C4.9396 26.0611 3.93851 25.06 3.358 23.8144C3.01603 22.9115 2.84657 21.9525 2.85842 20.9872C2.85842 19.4903 2.69189 18.9908 2.69189 14.9998C2.61697 13.0024 2.6726 11.0024 2.85842 9.01233C2.84657 8.04697 3.01603 7.08797 3.358 6.18514C3.64818 5.56832 4.0418 5.00574 4.52183 4.52175C4.91165 3.93985 5.50497 3.52474 6.18524 3.35795C7.08809 3.01598 8.0471 2.84652 9.01247 2.85837C11.0026 2.67255 13.0027 2.61693 15 2.69184ZM15 0.0311804C12.9472 -0.0419807 10.8918 0.0136369 8.84594 0.197706C7.59635 0.194702 6.3567 0.419801 5.18794 0.861936C4.1787 1.19122 3.26528 1.76226 2.52723 2.52532C1.76322 3.26368 1.1915 4.17777 0.86195 5.18786C0.340222 6.3331 0.111939 7.59025 0.197709 8.8458C0.0136371 10.8916 -0.0419813 12.947 0.031181 14.9998C-0.0419813 17.0525 0.0136371 19.1079 0.197709 21.1537C0.195075 22.404 0.420816 23.6443 0.863821 24.8135C1.19311 25.8228 1.76416 26.7362 2.52723 27.4742C3.26528 28.2373 4.1787 28.8083 5.18794 29.1376C6.35717 29.5806 7.59748 29.8063 8.84781 29.8037C10.8931 29.987 12.9478 30.042 15 29.9683C17.0528 30.0415 19.1082 29.9859 21.1541 29.8018C22.4044 29.8044 23.6447 29.5787 24.8139 29.1357C25.8157 28.7906 26.7257 28.2218 27.4749 27.4726C28.2242 26.7234 28.7929 25.8134 29.138 24.8117C29.5811 23.6424 29.8068 22.4022 29.8042 21.1518C29.8023 19.4903 29.9688 18.9908 29.9688 14.9998C30.042 12.947 29.9864 10.8916 29.8023 8.8458C29.8049 7.59548 29.5792 6.3552 29.1362 5.18598C28.8069 4.17676 28.2358 3.26335 27.4728 2.52532C26.7347 1.76226 25.8213 1.19122 24.8121 0.861936C23.6433 0.419801 22.4036 0.194702 21.1541 0.197706C19.1082 0.0136369 17.0528 -0.0419807 15 0.0311804ZM15 7.34894C13.9907 7.33224 12.9883 7.51873 12.0525 7.89731C11.1167 8.27588 10.2666 8.83882 9.55277 9.55262C8.83896 10.2664 8.27602 11.1165 7.89744 12.0523C7.51885 12.9881 7.33236 13.9904 7.34906 14.9998C7.34906 16.5129 7.79778 17.9922 8.63848 19.2503C9.47917 20.5085 10.6741 21.4891 12.0721 22.0682C13.4701 22.6473 15.0085 22.7988 16.4926 22.5036C17.9768 22.2084 19.34 21.4797 20.41 20.4097C21.48 19.3397 22.2087 17.9765 22.5039 16.4924C22.7991 15.0082 22.6476 13.4699 22.0685 12.0719C21.4895 10.6739 20.5088 9.47902 19.2506 8.63834C17.9924 7.79766 16.5132 7.34894 15 7.34894ZM15 19.9899C14.3413 20.0021 13.6869 19.8813 13.076 19.6349C12.465 19.3884 11.9101 19.0213 11.4442 18.5555C10.9784 18.0896 10.6113 17.5347 10.3648 16.9237C10.1183 16.3128 9.99758 15.6584 10.0098 14.9998C9.99758 14.3411 10.1183 13.6867 10.3648 13.0758C10.6113 12.4648 10.9784 11.9099 11.4442 11.444C11.9101 10.9782 12.465 10.6111 13.076 10.3646C13.6869 10.1182 14.3413 9.99742 15 10.0096C15.6587 9.99742 16.3131 10.1182 16.924 10.3646C17.535 10.6111 18.0899 10.9782 18.5558 11.444C19.0216 11.9099 19.3887 12.4648 19.6352 13.0758C19.8817 13.6867 20.0024 14.3411 19.9902 14.9998C20.0024 15.6584 19.8817 16.3128 19.6352 16.9237C19.3887 17.5347 19.0216 18.0896 18.5558 18.5555C18.0899 19.0213 17.535 19.3884 16.924 19.6349C16.3131 19.8813 15.6587 20.0021 15 19.9899ZM22.984 5.18786C22.6221 5.18786 22.2683 5.29518 21.9673 5.49625C21.6664 5.69732 21.4319 5.98312 21.2934 6.31749C21.1548 6.65186 21.1186 7.01979 21.1892 7.37476C21.2598 7.72973 21.4341 8.05579 21.69 8.3117C21.946 8.56762 22.272 8.7419 22.627 8.81251C22.982 8.88312 23.3499 8.84688 23.6843 8.70838C24.0187 8.56988 24.3045 8.33533 24.5055 8.03441C24.7066 7.73348 24.8139 7.37969 24.8139 7.01776C24.81 6.53365 24.616 6.07048 24.2736 5.72815C23.9313 5.38582 23.4681 5.19177 22.984 5.18786Z"
          fill="black"
        />
      </svg>